<?xml version="1.0" encoding="utf-8"?>
<!-- Generator: Adobe Illustrator 27.7.0, SVG Export Plug-In . SVG Version: 6.00 Build 0)  -->
<svg version="1.1" id="Layer_1" xmlns="http://www.w3.org/2000/svg" xmlns:xlink="http://www.w3.org/1999/xlink" x="0px" y="0px"
	 viewBox="0 0 600.67 82.67" style="enable-background:new 0 0 600.67 82.67;" xml:space="preserve">
<style type="text/css">
	.Arched_x0020_Green{fill:url(#SVGID_1_);stroke:#FFFFFF;stroke-width:0.25;stroke-miterlimit:1;}
	.st0{fill:#231F20;}
	.st1{fill:#CC0000;}
</style>
<linearGradient id="SVGID_1_" gradientUnits="userSpaceOnUse" x1="-108.3324" y1="348.6674" x2="-107.6253" y2="347.9603">
	<stop  offset="0" style="stop-color:#1EAB4B"/>
	<stop  offset="0.9831" style="stop-color:#19361A"/>
</linearGradient>
<g>
	<path class="st0" d="M453.84,76.85h14.02v-6.19h-6.37V35.89h6.37V29.7h-14.02v7.01c-4.01-5.19-10.02-8.38-17.12-8.38
		c-13.38,0-23.3,10.74-23.3,24.94c0,14.2,9.92,24.94,23.3,24.94c7.1,0,13.11-3.19,17.12-8.38V76.85z M406.78,64.2h-7.65
		c-2.73,4.73-7.65,7.65-14.66,7.65c-10.65,0-16.39-6.47-17.12-16.02h40.51v-3.37c0-14.38-9.19-24.12-23.67-24.12
		c-14.57,0-24.67,10.29-24.67,24.94c0,14.75,10.1,24.94,24.67,24.94C394.85,78.22,403.04,72.85,406.78,64.2 M307.36,37.07V14.95
		h6.83V8.57h-21.58v6.37h6.83v55.53h-6.83v6.37h21.58v-6.37h-6.83V43.26h34.23v27.22h-6.83v6.37h21.58v-6.37h-6.83V14.95h6.83V8.57
		h-21.58v6.37h6.83v22.12H307.36z M541.69,70.66h-6.37V49.54c0-9.83,5.01-14.75,13.84-14.75c7.92,0,13.02,4.92,13.02,14.75v21.12
		h-6.37v6.19h20.39v-6.19h-6.37V49.54c0-11.74-7.01-21.21-19.75-21.21c-6.65,0-11.56,2.55-14.75,6.65V8.57H521.3v6.19h6.37v55.9
		h-6.37v6.19h20.39V70.66z M421.25,53.27c0-10.74,6.83-18.48,16.48-18.48c9.74,0,16.38,7.92,16.38,18.48
		c0,10.56-6.64,18.48-16.38,18.48C428.08,71.75,421.25,64.02,421.25,53.27 M384.2,34.7c10.01,0,15.2,7.1,16.02,15.02h-32.86
		C368.27,41.07,374.09,34.7,384.2,34.7 M507.46,64.65V35.89h9.56V29.7h-9.56V17.68h-7.65V29.7h-7.28v6.19h7.28v29.13
		c0,8.38,3.73,12.47,12.56,12.47c1.37,0,3.55-0.27,4.64-0.64v-6.19c-1.46,0.27-2.73,0.36-3.91,0.36
		C509.28,71.03,507.46,69.66,507.46,64.65 M488.53,77.49c1.28,0,3.28-0.27,4.28-0.64v-6.19c-1.27,0.27-2.37,0.36-3.37,0.36
		c-3.28,0-4.82-1.73-4.82-6.83V8.57h-14.02v6.19h6.37v49.8C476.97,73.03,480.33,77.49,488.53,77.49"/>
	<path class="st1" d="M246.73,55.46c1.09,5.1,4.01,6.92,10.01,6.92c5.28,0,8.19-1.91,8.19-4.92c0-4.28-3.91-4.64-12.02-6.74
		c-9.47-2.46-15.57-4.55-18.39-6.56c-5.28-3.73-7.83-9.01-7.83-15.75c0-13.2,10.38-21.76,28.49-21.76
		c17.57,0,27.95,7.74,29.13,21.49h-20.66c-0.73-4.1-3.55-6.01-8.83-6.01c-4.64,0-6.92,1.55-6.92,4.64c0,3.64,3.55,4.28,10.1,6.01
		c8.47,2.19,15.2,3.55,19.48,6.46c6.01,4.01,8.74,8.92,8.74,15.93c0,14.84-10.65,23.49-30.41,23.49c-18.3,0-29.04-8.65-30.41-23.21
		H246.73z M166.35,50.27c-1.18,17.93-13.02,28.4-32.59,28.4c-21.76,0-35.05-13.84-35.05-35.96c0-22.3,13.38-36.05,34.59-36.05
		c19.75,0,31.41,10.01,32.68,27.68h-20.85c-0.64-6.92-4.55-10.56-11.56-10.56c-8.56,0-12.84,6.28-12.84,18.94
		c0,12.38,4.64,18.84,13.47,18.84c6.65,0,10.83-4.01,11.47-11.29H166.35z M161.71,8.57h22.3l11.47,44.06l12.29-44.06h21.48
		l-22.94,68.19h-21.76L161.71,8.57z M28.7,6.75c-2.59,0-5.17,0.99-7.14,2.97l-14.3,14.3c-3.94,3.94-3.94,10.35,0.01,14.3
		l40.35,40.36l40.35-40.36c3.95-3.95,3.94-10.35-0.01-14.3L73.68,9.73c-1.97-1.98-4.56-2.97-7.14-2.97c-2.59,0-5.19,1-7.17,2.99
		L47.62,21.49L35.86,9.73C33.88,7.75,31.29,6.75,28.7,6.75L28.7,6.75z"/>
</g>
<g>
	<path class="st0" d="M587.7,77.15c-4.03,0-6.89-3.01-6.89-7c0-4.21,3.18-7,6.89-7c3.67,0,6.85,2.79,6.85,7
		C594.55,74.36,591.37,77.15,587.7,77.15z M587.7,64.36c-3.03,0-5.39,2.38-5.39,5.79c0,3.18,2.06,5.79,5.39,5.79
		c3,0,5.35-2.36,5.35-5.79C593.05,66.74,590.69,64.36,587.7,64.36z M586.31,74.15h-1.27V66.4h2.94c1.87,0,2.83,0.65,2.83,2.23
		c0,1.4-0.86,1.98-2.02,2.12l2.17,3.41h-1.44l-2-3.31h-1.2V74.15z M587.73,69.75c0.96,0,1.8-0.09,1.8-1.22
		c0-0.94-0.92-1.05-1.68-1.05h-1.54v2.27H587.73z"/>
</g>
</svg>
